HIERARCHY
ROOT Hips
{
	OFFSET 0.000000 91.450211 0.000000
	CHANNELS 6 Xposition Yposition Zposition Xrotation Yrotation Zrotation
	JOINT Spine
	{
		OFFSET 0.000000 8.782394 0.768360
		CHANNELS 6 Xposition Yposition Zposition Xrotation Yrotation Zrotation
		JOINT Spine1
		{
			OFFSET 0.000000 11.084404 -0.062565
			CHANNELS 6 Xposition Yposition Zposition Xrotation Yrotation Zrotation
			JOINT Spine2
			{
				OFFSET 0.000000 10.927498 -1.859395
				CHANNELS 6 Xposition Yposition Zposition Xrotation Yrotation Zrotation
				JOINT Neck
				{
					OFFSET 0.000000 26.862015 1.174324
					CHANNELS 6 Xposition Yposition Zposition Xrotation Yrotation Zrotation
					JOINT Head
					{
						OFFSET 0.000000 12.051392 3.567542
						CHANNELS 3 Xrotation Yrotation Zrotation
						JOINT Head_Effector
						{
							OFFSET 0.000000 12.832352 0.868121
							CHANNELS 6 Xposition Yposition Zposition Xrotation Yrotation Zrotation
							End Site
							{
								OFFSET 0.000000 12.832336 0.868115
							}
						}
					}
				}
				JOINT LeftShoulder
				{
					OFFSET 2.147111 18.134659 2.271481
					CHANNELS 6 Xposition Yposition Zposition Xrotation Yrotation Zrotation
					JOINT LeftArm
					{
						OFFSET 17.312775 1.551712 -3.358366
						CHANNELS 3 Xrotation Yrotation Zrotation
						JOINT LeftForeArm
						{
							OFFSET 28.902603 0.503342 -2.320875
							CHANNELS 3 Xrotation Yrotation Zrotation
							JOINT LeftHand
							{
								OFFSET 23.916840 0.447495 1.945404
								CHANNELS 3 Xrotation Yrotation Zrotation
								JOINT LeftHandMiddle1
								{
									OFFSET 9.516891 1.595703 0.764819
									CHANNELS 6 Xposition Yposition Zposition Xrotation Yrotation Zrotation
									JOINT LeftHandMiddle2
									{
										OFFSET 3.885864 0.101303 0.315890
										CHANNELS 3 Xrotation Yrotation Zrotation
										JOINT LeftHandMiddle3
										{
											OFFSET 2.789856 0.072708 0.226794
											CHANNELS 3 Xrotation Yrotation Zrotation
											JOINT LeftHandMiddle4
											{
												OFFSET 2.550720 0.066513 0.207354
												CHANNELS 6 Xposition Yposition Zposition Xrotation Yrotation Zrotation
												End Site
												{
													OFFSET 2.550735 0.066498 0.207355
												}
											}
										}
									}
								}
								JOINT LeftHandThumb1
								{
									OFFSET 2.640549 -0.502533 3.629733
									CHANNELS 6 Xposition Yposition Zposition Xrotation Yrotation Zrotation
									JOINT LeftHandThumb2
									{
										OFFSET 2.309532 -0.256302 3.736356
										CHANNELS 6 Xposition Yposition Zposition Xrotation Yrotation Zrotation
										JOINT LeftHandThumb3
										{
											OFFSET 2.099869 -0.374146 2.774999
											CHANNELS 6 Xposition Yposition Zposition Xrotation Yrotation Zrotation
											JOINT LeftHandThumb4
											{
												OFFSET 1.607483 -0.325363 1.952581
												CHANNELS 3 Xrotation Yrotation Zrotation
												End Site
												{
													OFFSET 1.607498 -0.325333 1.952586
												}
											}
										}
									}
								}
								JOINT LeftHandRing1
								{
									OFFSET 9.133362 0.876816 -1.569385
									CHANNELS 6 Xposition Yposition Zposition Xrotation Yrotation Zrotation
									JOINT LeftHandRing2
									{
										OFFSET 3.288040 0.085709 0.267292
										CHANNELS 3 Xrotation Yrotation Zrotation
										JOINT LeftHandRing3
										{
											OFFSET 2.690231 0.070160 0.218695
											CHANNELS 3 Xrotation Yrotation Zrotation
											JOINT LeftHandRing4
											{
												OFFSET 2.291656 0.059738 0.186295
												CHANNELS 3 Xrotation Yrotation Zrotation
												End Site
												{
													OFFSET 2.291672 0.059708 0.186294
												}
											}
										}
									}
								}
								JOINT LeftHandPinky1
								{
									OFFSET 8.910561 0.188904 -3.690031
									CHANNELS 6 Xposition Yposition Zposition Xrotation Yrotation Zrotation
									JOINT LeftHandPinky2
									{
										OFFSET 2.989113 0.077927 0.242991
										CHANNELS 3 Xrotation Yrotation Zrotation
										JOINT LeftHandPinky3
										{
											OFFSET 1.992752 0.051971 0.161997
											CHANNELS 3 Xrotation Yrotation Zrotation
											JOINT LeftHandPinky4
											{
												OFFSET 1.793480 0.046738 0.145796
												CHANNELS 3 Xrotation Yrotation Zrotation
												End Site
												{
													OFFSET 1.793480 0.046753 0.145796
												}
											}
										}
									}
								}
								JOINT LeftHandIndex1
								{
									OFFSET 9.228851 1.601791 3.450318
									CHANNELS 6 Xposition Yposition Zposition Xrotation Yrotation Zrotation
									JOINT LeftHandIndex2
									{
										OFFSET 3.423752 0.089264 0.278325
										CHANNELS 6 Xposition Yposition Zposition Xrotation Yrotation Zrotation
										JOINT LeftHandIndex3
										{
											OFFSET 2.490936 0.064941 0.202494
											CHANNELS 3 Xrotation Yrotation Zrotation
											JOINT LeftHandIndex4
											{
												OFFSET 2.291687 0.059723 0.186295
												CHANNELS 3 Xrotation Yrotation Zrotation
												End Site
												{
													OFFSET 2.291672 0.059738 0.186296
												}
											}
										}
									}
								}
							}
						}
					}
				}
				JOINT RightShoulder
				{
					OFFSET -2.147111 18.135147 2.271447
					CHANNELS 6 Xposition Yposition Zposition Xrotation Yrotation Zrotation
					JOINT RightArm
					{
						OFFSET -17.312773 1.551712 -3.358366
						CHANNELS 3 Xrotation Yrotation Zrotation
						JOINT RightForeArm
						{
							OFFSET -28.902605 0.503342 -2.320875
							CHANNELS 3 Xrotation Yrotation Zrotation
							JOINT RightHand
							{
								OFFSET -23.916840 0.447479 1.945404
								CHANNELS 3 Xrotation Yrotation Zrotation
								JOINT RightHandMiddle1
								{
									OFFSET -9.516899 1.595703 0.764821
									CHANNELS 6 Xposition Yposition Zposition Xrotation Yrotation Zrotation
									JOINT RightHandMiddle2
									{
										OFFSET -3.885857 0.101303 0.315890
										CHANNELS 3 Xrotation Yrotation Zrotation
										JOINT RightHandMiddle3
										{
											OFFSET -2.789864 0.072723 0.226793
											CHANNELS 3 Xrotation Yrotation Zrotation
											JOINT RightHandMiddle4
											{
												OFFSET -2.550728 0.066513 0.207354
												CHANNELS 6 Xposition Yposition Zposition Xrotation Yrotation Zrotation
												End Site
												{
													OFFSET -2.550720 0.066498 0.207353
												}
											}
										}
									}
								}
								JOINT RightHandThumb1
								{
									OFFSET -2.640556 -0.502533 3.629735
									CHANNELS 6 Xposition Yposition Zposition Xrotation Yrotation Zrotation
									JOINT RightHandThumb2
									{
										OFFSET -2.309555 -0.256256 3.736347
										CHANNELS 6 Xposition Yposition Zposition Xrotation Yrotation Zrotation
										JOINT RightHandThumb3
										{
											OFFSET -2.099869 -0.374115 2.774992
											CHANNELS 3 Xrotation Yrotation Zrotation
											JOINT RightHandThumb4
											{
												OFFSET -1.607506 -0.325348 1.952590
												CHANNELS 3 Xrotation Yrotation Zrotation
												End Site
												{
													OFFSET -1.607506 -0.325333 1.952587
												}
											}
										}
									}
								}
								JOINT RightHandRing1
								{
									OFFSET -9.133369 0.876831 -1.569383
									CHANNELS 6 Xposition Yposition Zposition Xrotation Yrotation Zrotation
									JOINT RightHandRing2
									{
										OFFSET -3.288048 0.085709 0.267292
										CHANNELS 3 Xrotation Yrotation Zrotation
										JOINT RightHandRing3
										{
											OFFSET -2.690201 0.070145 0.218692
											CHANNELS 3 Xrotation Yrotation Zrotation
											JOINT RightHandRing4
											{
												OFFSET -2.291672 0.059738 0.186296
												CHANNELS 3 Xrotation Yrotation Zrotation
												End Site
												{
													OFFSET -2.291672 0.059723 0.186296
												}
											}
										}
									}
								}
								JOINT RightHandPinky1
								{
									OFFSET -8.910568 0.188904 -3.690030
									CHANNELS 6 Xposition Yposition Zposition Xrotation Yrotation Zrotation
									JOINT RightHandPinky2
									{
										OFFSET -2.989128 0.077927 0.242992
										CHANNELS 3 Xrotation Yrotation Zrotation
										JOINT RightHandPinky3
										{
											OFFSET -1.992744 0.051987 0.161997
											CHANNELS 3 Xrotation Yrotation Zrotation
											JOINT RightHandPinky4
											{
												OFFSET -1.793488 0.046738 0.145796
												CHANNELS 3 Xrotation Yrotation Zrotation
												End Site
												{
													OFFSET -1.793488 0.046768 0.145796
												}
											}
										}
									}
								}
								JOINT RightHandIndex1
								{
									OFFSET -9.228859 1.601807 3.450319
									CHANNELS 6 Xposition Yposition Zposition Xrotation Yrotation Zrotation
									JOINT RightHandIndex2
									{
										OFFSET -3.589912 0.093582 0.291831
										CHANNELS 3 Xrotation Yrotation Zrotation
										JOINT RightHandIndex3
										{
											OFFSET -2.490936 0.064941 0.202494
											CHANNELS 3 Xrotation Yrotation Zrotation
											JOINT RightHandIndex4
											{
												OFFSET -2.291672 0.059769 0.186295
												CHANNELS 3 Xrotation Yrotation Zrotation
												End Site
												{
													OFFSET -2.291656 0.059708 0.186294
												}
											}
										}
									}
								}
							}
						}
					}
				}
			}
		}
	}
	JOINT LeftUpLeg
	{
		OFFSET 8.746565 -4.280060 1.650660
		CHANNELS 6 Xposition Yposition Zposition Xrotation Yrotation Zrotation
		JOINT LeftLeg
		{
			OFFSET 1.512180 -39.821030 -2.735137
			CHANNELS 3 Xrotation Yrotation Zrotation
			JOINT LeftFoot
			{
				OFFSET 1.466830 -38.479496 -4.337268
				CHANNELS 3 Xrotation Yrotation Zrotation
				JOINT LeftToeBase
				{
					OFFSET 0.215393 -6.925917 13.942376
					CHANNELS 3 Xrotation Yrotation Zrotation
					JOINT LeftToeBase_Effector
					{
						OFFSET -0.018629 -0.046691 6.174702
						CHANNELS 3 Xrotation Yrotation Zrotation
						End Site
						{
							OFFSET -0.018630 -0.046693 6.174702
						}
					}
				}
			}
		}
	}
	JOINT RightUpLeg
	{
		OFFSET -8.746565 -4.280060 1.650660
		CHANNELS 6 Xposition Yposition Zposition Xrotation Yrotation Zrotation
		JOINT RightLeg
		{
			OFFSET -1.512180 -39.821030 -2.735137
			CHANNELS 3 Xrotation Yrotation Zrotation
			JOINT RightFoot
			{
				OFFSET -1.466830 -38.479496 -4.337268
				CHANNELS 3 Xrotation Yrotation Zrotation
				JOINT RightToeBase
				{
					OFFSET -0.215393 -6.925917 13.942376
					CHANNELS 3 Xrotation Yrotation Zrotation
					JOINT RightToeBase_Effector
					{
						OFFSET 0.018629 -0.046690 6.174490
						CHANNELS 3 Xrotation Yrotation Zrotation
						End Site
						{
							OFFSET 0.018629 -0.046691 6.174490
						}
					}
				}
			}
		}
	}
}
MOTION
Frames: 4
Frame Time: 0.008333
-1.013782 88.285637 145.065674 -1.887537 1.107897 -1.119047 0.000000 8.782405 0.768356 4.108882 -4.217117 1.460115 0.000000 11.084405 -0.062576 -0.357819 -5.465185 2.352008 -0.000000 10.927498 -1.859414 -0.173736 -2.522940 1.577909 -0.000003 26.861979 1.174329 -3.118688 4.602200 -0.039670 -3.095915 4.463711 -1.135307 -0.000000 12.832284 0.868151 0.018227 0.000000 0.000000 2.147111 18.134659 2.271495 1.950146 -23.146394 7.757451 -16.297851 -37.966781 -21.934521 0.303597 -23.731904 1.710763 -44.272993 7.358601 22.534409 9.516920 1.595698 0.764836 1.568818 -0.407539 -19.929290 1.191426 -0.254784 -14.948091 1.191414 -0.254802 -14.948059 2.550716 0.066529 0.207345 -0.000006 0.000004 0.000005 2.640574 -0.502537 3.629751 5.868452 37.374279 2.177872 2.309559 -0.256278 3.736367 6.801995 13.055364 -3.803220 2.099844 -0.374164 2.775003 6.801972 13.055375 -3.803254 0.000002 0.000005 0.000007 9.133385 0.876810 -1.569384 0.666125 -3.288221 -21.930184 1.191404 -0.254784 -14.948072 1.191423 -0.254787 -14.948077 0.000001 0.000006 0.000001 8.910571 0.188918 -3.690019 0.330138 -4.249260 -23.943240 1.191434 -0.254777 -14.948093 1.191406 -0.254796 -14.948070 -0.000005 0.000006 -0.000003 9.228876 1.601825 3.450332 2.838839 3.385532 -19.996777 3.423756 0.089270 0.278339 1.191418 -0.254770 -14.948091 1.191409 -0.254803 -14.948067 -0.000001 -0.000000 -0.000010 -2.147112 18.135162 2.271466 2.351636 -3.289049 4.895035 37.202790 49.845409 50.481440 0.055446 11.903624 -0.818324 -37.645841 -11.450775 -1.283116 -9.516894 1.595697 0.764818 1.568822 0.407540 19.929286 1.191410 0.254794 14.948081 1.191410 0.254797 14.948064 -2.550716 0.066526 0.207342 0.000000 0.000000 0.000001 -2.640570 -0.502551 3.629725 5.868340 -37.374324 -2.177552 -2.309549 -0.256286 3.736351 6.801941 -13.055380 3.803326 6.801933 -13.055374 3.803339 -0.000003 0.000006 -0.000003 -9.133374 0.876840 -1.569382 0.666115 3.288220 21.930172 1.191415 0.254794 14.948076 1.191418 0.254789 14.948081 -0.000001 0.000001 -0.000001 -8.910562 0.188898 -3.690024 0.330159 4.249254 23.943244 1.191432 0.254773 14.948065 1.191409 0.254797 14.948077 -0.000001 -0.000001 -0.000003 -9.228851 1.601805 3.450326 2.838836 -3.385545 19.996769 1.191421 0.254792 14.948088 1.191412 0.254795 14.948079 -0.000001 0.000001 -0.000003 8.746564 -4.280046 1.650670 -3.514802 -2.290514 4.143670 58.920429 0.486553 -4.599554 6.368283 -12.238588 -0.293100 -9.718433 -1.345517 -0.217058 0.000004 -0.000001 0.000000 -8.746565 -4.280043 1.650665 -23.462390 -2.113046 -1.256263 12.101742 1.342630 0.178440 3.131167 -1.850994 5.856559 -2.633212 0.294423 0.035495 -0.000000 -0.000000 0.000000 
-1.166285 88.534653 145.929749 -1.948714 1.031252 -1.112875 0.000000 8.782394 0.768376 4.128136 -4.029515 1.413734 -0.000000 11.084390 -0.062549 -0.333465 -5.220259 2.271770 -0.000001 10.927504 -1.859406 -0.162037 -2.407880 1.519861 0.000001 26.861996 1.174296 -2.996334 4.398381 -0.130735 -2.979920 4.243766 -1.175974 0.000000 12.832284 0.868079 0.018227 -0.000000 0.000000 2.147114 18.134657 2.271453 2.020740 -22.926662 7.139608 -15.476010 -38.745279 -23.229639 0.279826 -22.885913 1.643387 -43.833470 7.519809 22.091410 9.516894 1.595713 0.764822 1.568823 -0.407548 -19.929290 1.191411 -0.254788 -14.948089 1.191425 -0.254783 -14.948067 2.550704 0.066513 0.207384 -0.000005 -0.000002 -0.000006 2.640567 -0.502544 3.629735 5.868455 37.374276 2.177886 2.309519 -0.256261 3.736347 6.801995 13.055357 -3.803244 2.099861 -0.374164 2.774985 6.801985 13.055374 -3.803237 -0.000005 0.000006 0.000001 9.133358 0.876810 -1.569381 0.666125 -3.288224 -21.930165 1.191407 -0.254795 -14.948081 1.191421 -0.254779 -14.948088 -0.000011 -0.000003 0.000002 8.910566 0.188906 -3.690024 0.330162 -4.249255 -23.943261 1.191422 -0.254780 -14.948065 1.191410 -0.254791 -14.948067 0.000002 -0.000003 -0.000008 9.228861 1.601796 3.450329 2.838847 3.385540 -19.996779 3.423759 0.089251 0.278335 1.191406 -0.254788 -14.948067 1.191402 -0.254794 -14.948089 -0.000002 0.000003 -0.000002 -2.147112 18.135155 2.271416 2.441452 -2.134410 5.835223 33.826860 48.758303 50.639029 0.058696 12.192499 -0.838695 -37.197238 -10.343569 -0.607282 -9.516879 1.595697 0.764822 1.568824 0.407544 19.929286 1.191412 0.254792 14.948086 1.191411 0.254797 14.948065 -2.550716 0.066545 0.207361 -0.000000 -0.000001 -0.000005 -2.640568 -0.502528 3.629720 5.868362 -37.374334 -2.177536 -2.309565 -0.256259 3.736350 6.801928 -13.055368 3.803326 6.801936 -13.055384 3.803343 -0.000002 0.000006 -0.000002 -9.133389 0.876834 -1.569393 0.666117 3.288221 21.930170 1.191415 0.254793 14.948076 1.191420 0.254788 14.948079 0.000001 -0.000000 -0.000001 -8.910569 0.188887 -3.690042 0.330161 4.249254 23.943261 1.191435 0.254775 14.948067 1.191407 0.254797 14.948076 -0.000001 -0.000004 -0.000001 -9.228844 1.601809 3.450306 2.838846 -3.385546 19.996794 1.191412 0.254795 14.948065 1.191413 0.254793 14.948067 -0.000000 -0.000002 0.000000 8.746564 -4.280056 1.650658 -5.218878 -2.025306 4.414681 60.351538 0.411264 -4.703243 5.786577 -12.138625 0.104683 -9.653385 -1.336667 -0.214857 0.000001 0.000001 0.000001 -8.746566 -4.280055 1.650660 -22.595383 -1.533899 -0.976611 11.878968 1.337206 0.145979 2.464402 -2.099408 5.628925 -2.467916 0.275993 0.032865 0.000002 -0.000000 0.000000 
-1.314819 88.770775 146.787048 -2.000516 0.966535 -1.084702 0.000000 8.782400 0.768351 4.145629 -3.837879 1.353798 0.000000 11.084394 -0.062571 -0.311264 -4.971401 2.173166 -0.000003 10.927495 -1.859380 -0.151467 -2.292265 1.452411 0.000004 26.862009 1.174343 -2.904184 4.174797 -0.198980 -2.892609 4.010037 -1.189589 -0.000000 12.832269 0.868134 0.018227 -0.000000 0.000000 2.147118 18.134644 2.271500 2.102847 -22.649648 6.411985 -14.767943 -39.508475 -24.521465 0.259302 -22.119060 1.582940 -43.403274 7.553943 21.610053 9.516913 1.595703 0.764819 1.568818 -0.407546 -19.929293 1.191419 -0.254778 -14.948079 1.191436 -0.254794 -14.948074 2.550725 0.066526 0.207352 -0.000002 0.000002 -0.000005 2.640571 -0.502521 3.629736 5.868465 37.374266 2.177870 2.309546 -0.256259 3.736348 6.801982 13.055359 -3.803209 2.099831 -0.374156 2.774987 6.801977 13.055388 -3.803252 0.000006 0.000003 0.000005 9.133377 0.876789 -1.569379 0.666132 -3.288224 -21.930173 1.191412 -0.254787 -14.948077 1.191418 -0.254797 -14.948082 0.000000 -0.000002 -0.000004 8.910564 0.188901 -3.690029 0.330159 -4.249266 -23.943257 1.191430 -0.254786 -14.948069 1.191404 -0.254797 -14.948064 0.000001 -0.000001 0.000000 9.228872 1.601782 3.450311 2.838860 3.385541 -19.996793 3.423766 0.089240 0.278316 1.191397 -0.254803 -14.948067 1.191414 -0.254794 -14.948089 0.000002 0.000001 -0.000006 -2.147108 18.135168 2.271449 2.532759 -0.927539 6.768384 30.297749 47.407599 50.816191 0.063003 12.561637 -0.864820 -36.671494 -9.084563 -0.096312 -9.516902 1.595695 0.764823 1.568821 0.407544 19.929280 1.191410 0.254794 14.948076 1.191411 0.254797 14.948074 -2.550704 0.066540 0.207354 -0.000000 0.000001 -0.000003 -2.640573 -0.502530 3.629730 5.868351 -37.374334 -2.177542 -2.309550 -0.256252 3.736346 6.801938 -13.055381 3.803322 6.801927 -13.055362 3.803344 -0.000003 0.000006 0.000001 -9.133379 0.876832 -1.569384 0.666115 3.288227 21.930177 1.191411 0.254792 14.948047 1.191421 0.254789 14.948082 -0.000001 -0.000001 -0.000003 -8.910550 0.188898 -3.690029 0.330156 4.249255 23.943235 1.191434 0.254778 14.948072 1.191405 0.254797 14.948065 -0.000000 -0.000000 0.000006 -9.228855 1.601821 3.450314 2.838839 -3.385542 19.996782 1.191417 0.254792 14.948082 1.191413 0.254797 14.948069 -0.000000 0.000001 -0.000004 8.746565 -4.280067 1.650656 -6.885459 -1.738688 4.686058 61.399719 0.337469 -4.775000 4.931145 -12.085169 0.136171 -9.697564 -1.342696 -0.216361 0.000003 -0.000001 0.000001 -8.746566 -4.280062 1.650660 -21.771595 -1.083051 -0.737365 11.702241 1.331370 0.116604 1.814773 -2.313003 5.409672 -2.458669 0.274959 0.032719 0.000001 -0.000000 0.000000 
-1.459550 89.001282 147.634995 -2.033190 0.904289 -1.066250 0.000000 8.782389 0.768351 4.164474 -3.642947 1.302277 0.000000 11.084391 -0.062574 -0.287300 -4.717214 2.085433 0.000000 10.927497 -1.859397 -0.139972 -2.173207 1.389938 0.000001 26.862005 1.174336 -2.849176 3.948866 -0.279705 -2.842967 3.771174 -1.214193 0.000000 12.832299 0.868078 0.018227 -0.000000 -0.000000 2.147114 18.134651 2.271503 2.181694 -22.404139 5.716791 -14.454089 -39.943158 -26.216016 0.248353 -21.696304 1.549869 -42.321355 7.745432 21.000935 9.516898 1.595730 0.764829 1.568816 -0.407551 -19.929292 1.191406 -0.254778 -14.948079 1.191418 -0.254795 -14.948079 2.550730 0.066518 0.207355 0.000002 0.000000 0.000002 2.640543 -0.502537 3.629733 5.868439 37.374266 2.177879 2.309577 -0.256270 3.736361 6.801996 13.055365 -3.803224 2.099867 -0.374182 2.775023 6.801989 13.055376 -3.803244 0.000001 0.000007 0.000005 9.133360 0.876807 -1.569387 0.666121 -3.288202 -21.930178 1.191420 -0.254814 -14.948074 1.191416 -0.254780 -14.948082 -0.000003 -0.000001 0.000001 8.910552 0.188909 -3.690017 0.330159 -4.249260 -23.943261 1.191425 -0.254778 -14.948079 1.191415 -0.254794 -14.948074 -0.000004 -0.000001 0.000006 9.228849 1.601796 3.450326 2.838847 3.385535 -19.996788 3.423767 0.089272 0.278309 1.191417 -0.254798 -14.948082 1.191411 -0.254785 -14.948076 -0.000003 0.000001 -0.000002 -2.147116 18.135149 2.271460 2.616642 0.362618 7.545425 27.088660 46.374976 50.648363 0.066808 12.877411 -0.887235 -36.340629 -7.789887 0.177525 -9.516891 1.595693 0.764832 1.568822 0.407544 19.929288 1.191407 0.254794 14.948077 1.191410 0.254793 14.948060 -2.550700 0.066556 0.207353 -0.000002 0.000000 -0.000002 -2.640560 -0.502538 3.629753 5.868358 -37.374320 -2.177536 -2.309560 -0.256281 3.736331 6.801925 -13.055383 3.803317 6.801928 -13.055382 3.803348 -0.000004 0.000007 -0.000002 -9.133386 0.876840 -1.569367 0.666116 3.288222 21.930158 1.191413 0.254794 14.948079 1.191417 0.254787 14.948076 0.000003 -0.000000 -0.000001 -8.910564 0.188898 -3.690021 0.330157 4.249252 23.943240 1.191432 0.254777 14.948057 1.191407 0.254799 14.948100 -0.000000 -0.000001 0.000000 -9.228859 1.601802 3.450340 2.838841 -3.385545 19.996779 1.191414 0.254793 14.948084 1.191410 0.254794 14.948072 -0.000000 -0.000003 -0.000003 8.746564 -4.280071 1.650659 -8.587448 -1.364760 4.994580 62.207485 0.285164 -4.826487 3.793379 -11.957437 0.133491 -9.392100 -1.301067 -0.206091 0.000007 0.000000 0.000001 -8.746566 -4.280057 1.650646 -21.058238 -0.934267 -0.548771 11.621546 1.331222 0.098717 1.297970 -2.481937 5.346938 -2.774463 0.310163 0.037779 -0.000001 0.000000 -0.000000 
